<mxfile host="app.diagrams.net" modified="2023-07-31T00:20:10.684Z" agent="Mozilla/5.0 (Windows NT 10.0; Win64; x64) AppleWebKit/537.36 (KHTML, like Gecko) Chrome/115.0.0.0 Safari/537.36" version="21.6.6" etag="0xHJaykIRQP9wrF8u7Pv" type="github">
  <diagram name="페이지-1" id="CwoBdQqP3WxRwVz8Imy_">
    <mxGraphModel>
      <root>
        <mxCell id="0" />
        <mxCell id="1" parent="0" />
      </root>
    </mxGraphModel>
  </diagram>
</mxfile>
